<svg width="1289" height="226" viewBox="0 0 1289 226" fill="none" xmlns="http://www.w3.org/2000/svg">
<path d="M278.457 222L249.957 138H86.957L58.457 222H0.457031L128.457 -130H208.457L336.457 222H278.457ZM235.457 94L177.457 -78C174.79 -87 173.124 -94 172.457 -99C172.457 -99.3333 172.29 -100 171.957 -101C171.957 -102.333 171.624 -103.333 170.957 -104C170.29 -104.667 169.457 -105 168.457 -105C167.124 -105 166.124 -104.5 165.457 -103.5C165.124 -102.5 164.79 -101.5 164.457 -100.5C164.457 -99.8333 164.457 -99.3333 164.457 -99C163.79 -94 162.124 -87 159.457 -78L101.457 94H235.457ZM496.895 14.5C526.228 18.5 550.395 23.8333 569.395 30.5C588.728 37.1667 604.061 47.5 615.395 61.5C626.728 75.1667 632.395 93.6667 632.395 117C632.395 136.667 627.061 154.833 616.395 171.5C605.728 187.833 589.728 201 568.395 211C547.395 221 522.061 226 492.395 226C461.395 226 435.395 220.167 414.395 208.5C393.395 196.5 377.728 180.833 367.395 161.5C357.395 141.833 352.395 120.667 352.395 98H402.395C403.061 120 410.228 139.5 423.895 156.5C437.895 173.5 460.728 182 492.395 182C523.728 182 546.228 175.833 559.895 163.5C573.561 150.833 580.395 136.333 580.395 120C580.395 104 573.895 91.6667 560.895 83C548.228 74 525.228 67.5 491.895 63.5C449.561 58.5 417.728 48.1667 396.395 32.5C375.061 16.8333 364.395 -5.66668 364.395 -35C364.395 -53.6667 369.395 -70.5 379.395 -85.5C389.728 -100.5 404.561 -112.333 423.895 -121C443.561 -129.667 466.561 -134 492.895 -134C520.561 -134 543.728 -128.833 562.395 -118.5C581.061 -108.167 594.895 -94.5 603.895 -77.5C613.228 -60.5 618.228 -42 618.895 -22H570.395C570.395 -33.3333 567.728 -44.1667 562.395 -54.5C557.061 -64.8334 548.395 -73.3334 536.395 -80C524.728 -86.6667 509.895 -90 491.895 -90C465.228 -90 445.895 -84.8333 433.895 -74.5C421.895 -64.1667 415.895 -52 415.895 -38C415.895 -25 421.228 -14 431.895 -5.00001C442.895 3.66665 464.561 10.1667 496.895 14.5ZM880.406 222L766.906 63.5L732.406 103V222H680.406V-130H732.406V0.999984C732.406 9.33332 731.406 16.3333 729.406 22C727.74 27.3333 725.073 33.1667 721.406 39.5C720.74 40.5 720.24 41.6667 719.906 43C719.573 44 719.906 45 720.906 46L722.906 47C724.24 47 725.74 45.8333 727.406 43.5L872.406 -130H936.406L799.906 26L944.406 222H880.406ZM1230.61 222L1202.11 138H1039.11L1010.61 222H952.605L1080.61 -130H1160.61L1288.61 222H1230.61ZM1187.61 94L1129.61 -78C1126.94 -87 1125.27 -94 1124.61 -99C1124.61 -99.3333 1124.44 -100 1124.11 -101C1124.11 -102.333 1123.77 -103.333 1123.11 -104C1122.44 -104.667 1121.61 -105 1120.61 -105C1119.27 -105 1118.27 -104.5 1117.61 -103.5C1117.27 -102.5 1116.94 -101.5 1116.61 -100.5C1116.61 -99.8333 1116.61 -99.3333 1116.61 -99C1115.94 -94 1114.27 -87 1111.61 -78L1053.61 94H1187.61Z" fill="url(#paint0_linear_12_189)" fill-opacity="0.65"/>
<defs>
<linearGradient id="paint0_linear_12_189" x1="644.5" y1="-0.500006" x2="644.5" y2="222" gradientUnits="userSpaceOnUse">
<stop stop-color="white"/>
<stop offset="1" stop-color="#232323" stop-opacity="0"/>
</linearGradient>
</defs>
</svg>
